<?xml version="1.0" standalone="no"?>
<!DOCTYPE svg PUBLIC "-//W3C//DTD SVG 20010904//EN"
 "http://www.w3.org/TR/2001/REC-SVG-20010904/DTD/svg10.dtd">
<svg version="1.0" xmlns="http://www.w3.org/2000/svg"
 width="512.000000pt" height="512.000000pt" viewBox="0 0 512.000000 512.000000"
 preserveAspectRatio="xMidYMid meet">
<metadata>
Created by potrace 1.16, written by Peter Selinger 2001-2019
</metadata>
<g transform="translate(0.000000,512.000000) scale(0.100000,-0.100000)"
fill="#000000" stroke="none">
<path d="M2425 4631 c-48 -29 -109 -104 -178 -219 -62 -104 -1588 -2600 -1942
-3177 -98 -159 -187 -310 -198 -334 -30 -69 -27 -176 8 -248 35 -71 93 -128
160 -159 l52 -24 2239 2 2239 3 48 25 c94 48 163 149 174 254 8 81 -12 152
-66 236 -1267 1969 -2301 3564 -2329 3593 -20 21 -49 45 -64 53 -38 20 -107
18 -143 -5z m133 -216 c305 -467 2272 -3522 2289 -3554 44 -86 20 -171 -61
-214 l-41 -22 -2190 0 -2190 0 -35 21 c-46 27 -80 87 -80 143 0 40 81 175
1101 1845 606 990 1111 1811 1122 1824 11 12 25 22 31 22 6 0 30 -29 54 -65z"/>
<path d="M2363 3690 c-85 -43 -138 -104 -165 -193 -14 -49 -19 -84 -15 -121
14 -135 240 -1444 253 -1463 12 -19 24 -23 63 -23 31 0 53 5 61 15 16 19 250
1401 252 1490 3 130 -53 230 -163 290 -45 24 -68 30 -139 33 -79 3 -89 2 -147
-28z m212 -149 c49 -28 75 -76 75 -138 0 -47 -110 -741 -142 -893 -11 -54 -12
-50 -89 405 -43 253 -78 473 -79 488 0 33 29 94 58 120 29 26 92 47 122 40 14
-3 38 -13 55 -22z"/>
<path d="M2400 1801 c-93 -30 -173 -103 -217 -196 -23 -50 -28 -73 -28 -140 0
-103 34 -183 107 -251 67 -63 125 -87 223 -92 108 -5 179 21 250 92 180 180
133 459 -94 564 -43 21 -74 27 -136 29 -44 1 -91 -1 -105 -6z m204 -185 c61
-46 93 -131 75 -198 -26 -100 -149 -164 -246 -127 -62 23 -123 109 -123 174 0
63 48 134 115 170 46 25 134 16 179 -19z"/>
</g>
</svg>
